<svg xmlns="http://www.w3.org/2000/svg" viewBox="0 0 195.08 195.08"><defs><style>.cls-1{fill:#0b7;}.cls-2{fill:#031649;}</style></defs><title>zero-icon-1</title><g id="Layer_2" data-name="Layer 2"><g id="Layer_1_copy_4" data-name="Layer 1 copy 4"><path class="cls-1" d="M32,32H141.82L173.38.39A30.22,30.22,0,0,0,168.5,0H30.94A30.94,30.94,0,0,0,0,30.94V168.5a30.22,30.22,0,0,0,.39,4.88L32,141.82Z"/><path class="cls-2" d="M163.13,163.13H53.26L21.7,194.69a31.4,31.4,0,0,0,4.88.39H164.14a30.94,30.94,0,0,0,30.94-30.94V26.58a31.4,31.4,0,0,0-.39-4.88L163.13,53.26Z"/><polyline class="cls-2" points="83.74 132.63 132.15 132.63 132.15 84.23"/><polyline class="cls-1" points="110.37 62.93 61.96 62.93 61.96 111.33"/></g></g></svg>