<svg version="1.1" xmlns="http://www.w3.org/2000/svg" xmlns:xlink="http://www.w3.org/1999/xlink" width="219" height="462"><defs/><g><g/><g/><g/><g/><g/><g/><g><rect fill="white" stroke="none" x="0" y="0" width="219" height="462"/></g><g/><g><path fill="none" stroke="black" paint-order="fill stroke markers" d=" M 30.3912972305 55.049635120999994 L 30.3912972305 462.0802827254042" stroke-miterlimit="10" stroke-width="1.3612669416666667" stroke-dasharray="12.565541,5.445067766666667"/><path fill="none" stroke="black" paint-order="fill stroke markers" d=" M 105.11944101383334 55.049635120999994 L 105.11944101383334 462.0802827254042" stroke-miterlimit="10" stroke-width="1.3612669416666667" stroke-dasharray="12.565541,5.445067766666667"/><path fill="none" stroke="black" paint-order="fill stroke markers" d=" M 188.01518644716668 55.049635120999994 L 188.01518644716668 462.0802827254042" stroke-miterlimit="10" stroke-width="1.3612669416666667" stroke-dasharray="12.565541,5.445067766666667"/></g><g><path fill="none" stroke="none"/><g><path fill="white" stroke="black" paint-order="fill stroke markers" d=" M 8.167601650000002 10.944586211000003 L 52.614992811 10.944586211000003 L 52.614992811 55.049635120999994 L 8.167601650000002 55.049635120999994 L 8.167601650000002 10.944586211000003 Z" stroke-miterlimit="10" stroke-width="2.613632528" stroke-dasharray=""/></g><g><g/><text fill="black" stroke="none" font-family="sans-serif" font-size="11pt" font-style="normal" font-weight="normal" text-decoration="normal" x="25.8912972305" y="38.71443182099999" text-anchor="start" dominant-baseline="alphabetic">A</text></g><path fill="none" stroke="none"/><g><path fill="white" stroke="black" paint-order="fill stroke markers" d=" M 82.39574543333333 10.944586211000003 L 127.84313659433333 10.944586211000003 L 127.84313659433333 55.049635120999994 L 82.39574543333333 55.049635120999994 L 82.39574543333333 10.944586211000003 Z" stroke-miterlimit="10" stroke-width="2.613632528" stroke-dasharray=""/></g><g><g/><text fill="black" stroke="none" font-family="sans-serif" font-size="11pt" font-style="normal" font-weight="normal" text-decoration="normal" x="100.11944101383334" y="38.71443182099999" text-anchor="start" dominant-baseline="alphabetic">B</text></g><path fill="none" stroke="none"/><g><path fill="white" stroke="black" paint-order="fill stroke markers" d=" M 164.7914908666667 10.944586211000003 L 211.2388820276667 10.944586211000003 L 211.2388820276667 55.049635120999994 L 164.7914908666667 55.049635120999994 L 164.7914908666667 10.944586211000003 Z" stroke-miterlimit="10" stroke-width="2.613632528" stroke-dasharray=""/></g><g><g/><text fill="black" stroke="none" font-family="sans-serif" font-size="11pt" font-style="normal" font-weight="normal" text-decoration="normal" x="182.51518644716668" y="38.71443182099999" text-anchor="start" dominant-baseline="alphabetic">C</text></g></g><g><path fill="white" stroke="black" paint-order="fill stroke markers" d=" M 96.95183936383334 266.50256846270605 L 113.28704266383333 266.50256846270605 L 113.28704266383333 404.90707117540416 L 96.95183936383334 404.90707117540416 L 96.95183936383334 266.50256846270605" stroke-miterlimit="10" stroke-width="1.3612669416666667" stroke-dasharray=""/><path fill="white" stroke="black" paint-order="fill stroke markers" d=" M 179.8475847971667 348.17858496270605 L 196.18278809716668 348.17858496270605 L 196.18278809716668 388.57186787540417 L 179.8475847971667 388.57186787540417 L 179.8475847971667 348.17858496270605" stroke-miterlimit="10" stroke-width="1.3612669416666667" stroke-dasharray=""/><g><g><rect fill="white" stroke="none" x="53.80508862716667" y="87.72004172099999" width="27.90056099" height="21.23576429"/></g><text fill="black" stroke="none" font-family="sans-serif" font-size="11pt" font-style="normal" font-weight="normal" text-decoration="normal" x="56.25536912216667" y="102.421724691" text-anchor="start" dominant-baseline="alphabetic">info</text></g><g><path fill="none" stroke="black" paint-order="fill stroke markers" d=" M 30.3912972305 103.3020475857784 L 102.39690713050001 119.0421184199656" stroke-miterlimit="10" stroke-width="1.3612669416666667" stroke-dasharray=""/><g transform="translate(105.11944101383334,119.6372508857784) rotate(12.330615160521326,0,0) translate(-105.11944101383334,-119.6372508857784)"><path fill="black" stroke="none" paint-order="stroke fill markers" d=" M 91.50677159716668 112.83091617744506 L 105.11944101383334 119.6372508857784 L 91.50677159716668 126.44358559411174 Z"/><g transform="rotate(-12.330615160521326,0,0)"/></g></g><g><g><rect fill="white" stroke="none" x="53.80508862716667" y="144.1400558357784" width="27.90056099" height="21.23576429"/></g><text fill="black" stroke="none" font-family="sans-serif" font-size="11pt" font-style="normal" font-weight="normal" text-decoration="normal" x="56.25536912216667" y="158.8417388057784" text-anchor="start" dominant-baseline="alphabetic">info</text></g><g><path fill="none" stroke="black" paint-order="fill stroke markers" d=" M 105.11944101383334 159.72206170055682 L 33.113831113833335 175.462132534744" stroke-miterlimit="10" stroke-width="1.3612669416666667" stroke-dasharray="6.53408132"/><g transform="translate(30.3912972305,176.0572650005568) rotate(-12.330615160521326,0,0) translate(-30.3912972305,-176.0572650005568)"><path fill="black" stroke="none" paint-order="stroke fill markers" d=" M 44.00396664716667 169.25093029222347 L 30.3912972305 176.0572650005568 L 44.00396664716667 182.86359970889015 Z"/><g transform="rotate(12.330615160521326,0,0)"/></g></g><g><g><rect fill="white" stroke="none" x="95.25296134383333" y="200.5600699505568" width="27.90056099" height="21.23576429"/></g><text fill="black" stroke="none" font-family="sans-serif" font-size="11pt" font-style="normal" font-weight="normal" text-decoration="normal" x="97.70324183883334" y="215.26175292055677" text-anchor="start" dominant-baseline="alphabetic">info</text></g><g><path fill="none" stroke="black" paint-order="fill stroke markers" d=" M 188.01518644716668 214.82002425921547 L 33.113831113833335 230.87308032445046" stroke-miterlimit="10" stroke-width="1.3612669416666667" stroke-dasharray=""/><g transform="translate(30.3912972305,231.15522755921546) rotate(-5.9166727471640215,0,0) translate(-30.3912972305,-231.15522755921546)"><path fill="black" stroke="none" paint-order="stroke fill markers" d=" M 44.00396664716667 224.34889285088212 L 30.3912972305 231.15522755921546 L 44.00396664716667 237.9615622675488 Z"/><g transform="rotate(5.9166727471640215,0,0)"/></g></g><g><g><rect fill="white" stroke="none" x="132.61703323550003" y="255.6580325092155" width="27.90056099" height="21.23576429"/></g><g><rect fill="white" stroke="none" x="132.61703323550003" y="271.9932358092155" width="27.90056099" height="21.23576429"/></g><text fill="black" stroke="none" font-family="sans-serif" font-size="11pt" font-style="normal" font-weight="normal" text-decoration="normal" x="135.06731373050002" y="270.3597154792155" text-anchor="start" dominant-baseline="alphabetic">info</text><text fill="black" stroke="none" font-family="sans-serif" font-size="11pt" font-style="normal" font-weight="normal" text-decoration="normal" x="135.06731373050002" y="286.69491877921547" text-anchor="start" dominant-baseline="alphabetic">info</text></g><g><path fill="none" stroke="black" paint-order="fill stroke markers" d=" M 113.28704266383333 266.50256846270605 L 177.12505091383335 344.8377810081424" stroke-miterlimit="10" stroke-width="1.3612669416666667" stroke-dasharray=""/><g transform="translate(179.8475847971667,348.17858496270605) rotate(50.82224695335565,0,0) translate(-179.8475847971667,-348.17858496270605)"><path fill="black" stroke="none" paint-order="stroke fill markers" d=" M 166.2349153805 341.3722502543727 L 179.8475847971667 348.17858496270605 L 166.2349153805 354.9849196710394 Z"/><g transform="rotate(-50.82224695335565,0,0)"/></g></g><g><g><rect fill="white" stroke="none" x="132.61703323550003" y="372.68138991270604" width="27.90056099" height="21.23576429"/></g><text fill="black" stroke="none" font-family="sans-serif" font-size="11pt" font-style="normal" font-weight="normal" text-decoration="normal" x="135.06731373050002" y="387.383072882706" text-anchor="start" dominant-baseline="alphabetic">info</text></g><g><path fill="none" stroke="black" paint-order="fill stroke markers" d=" M 179.8475847971667 388.57186787540417 L 116.00957654716666 404.2389103844914" stroke-miterlimit="10" stroke-width="1.3612669416666667" stroke-dasharray="6.53408132"/><g transform="translate(113.28704266383333,404.90707117540416) rotate(-13.788931075024685,0,0) translate(-113.28704266383333,-404.90707117540416)"><path fill="black" stroke="none" paint-order="stroke fill markers" d=" M 126.8997120805 398.1007364670708 L 113.28704266383333 404.90707117540416 L 126.8997120805 411.7134058837375 Z"/><g transform="rotate(13.788931075024685,0,0)"/></g></g></g><g/><g/><g/></g></svg>